<svg width="134" height="116" viewBox="0 0 134 116" fill="none" xmlns="http://www.w3.org/2000/svg">
<path d="M82.4594 95.8007C76.7527 90.4404 69.3506 90.7872 62.864 93.5766C56.3774 96.3659 50.419 101.33 44.099 104.86C38.8006 107.818 33.2407 109.761 27.6129 110.625C19.5581 111.854 10.563 110.352 4.95125 101.691C-1.29842 92.0406 -0.818431 74.6353 5.93836 65.7825C9.37722 61.2769 13.8797 59.065 17.8059 55.5425C21.7322 52.0199 25.3672 46.1818 25.0329 39.3919C24.7231 33.1114 21.1239 28.2809 17.3988 25.2553C14.5201 22.9151 10.9751 20.3606 10.6284 15.5164C10.2928 10.8278 13.2739 7.15507 16.1204 5.06611C25.4067 -1.74964 36.8498 -1.6841 46.104 5.23814C49.4047 7.70666 52.4388 10.9903 55.8999 12.9154C64.9875 17.9671 75.0018 12.8813 84.6249 11.0217C92.7686 9.44746 101.121 10.2626 109.056 13.4069C113.821 15.2952 118.605 18.1856 121.953 23.5609C124.367 27.4385 125.871 32.3455 127.283 37.1924C128.788 42.3616 130.236 47.5667 131.625 52.8077C132.458 55.948 133.279 59.162 133.494 62.5275C133.884 68.6278 132.241 74.6572 130.003 79.8058C124.684 92.0269 115.734 100.622 106.04 102.806C96.3469 104.991 86.092 100.724 78.5739 91.3934" fill="white" fill-opacity="0.77"/>
<path d="M90.5267 100.801C85.721 95.4404 79.4876 95.7872 74.0252 98.5766C68.5629 101.366 63.5452 106.33 58.2231 109.86C53.7614 112.818 49.0793 114.761 44.3401 115.625C37.5571 116.854 29.9823 115.352 25.2566 106.691C19.9937 97.0406 20.3979 79.6353 26.0879 70.7825C28.9837 66.2769 32.7753 64.065 36.0816 60.5425C39.3879 57.0199 42.449 51.1818 42.1674 44.3919C41.9066 38.1114 38.8757 33.2809 35.7387 30.2553C33.3146 27.9151 30.3293 25.3606 30.0374 20.5164C29.7547 15.8278 32.2651 12.1551 34.6623 10.0661C42.4823 3.25036 52.1186 3.3159 59.9116 10.2381C62.6911 12.7067 65.2462 15.9903 68.1607 17.9154C75.8135 22.9671 84.2465 17.8813 92.3502 16.0217C99.2081 14.4475 106.242 15.2626 112.924 18.4069C116.937 20.2952 120.965 23.1856 123.784 28.5609C125.818 32.4385 127.084 37.3455 128.273 42.1924C129.541 47.3616 130.759 52.5667 131.929 57.8077C132.631 60.948 133.322 64.162 133.504 67.5275C133.832 73.6278 132.448 79.6572 130.563 84.8058C126.085 97.0269 118.547 105.622 110.384 107.806C102.221 109.991 93.5857 105.724 87.2546 96.3934" fill="white" fill-opacity="0.5"/>
</svg>
