<svg width="35" height="35" viewBox="0 0 35 35" fill="none" xmlns="http://www.w3.org/2000/svg">
<path d="M17.4167 15.381H19.5V12.2381H22.625V10.1429H19.5V7H17.4167V10.1429H14.2917V12.2381H17.4167V15.381ZM13.25 24.8095C12.1042 24.8095 11.1771 25.7524 11.1771 26.9048C11.1771 28.0571 12.1042 29 13.25 29C14.3958 29 15.3333 28.0571 15.3333 26.9048C15.3333 25.7524 14.3958 24.8095 13.25 24.8095ZM23.6667 24.8095C22.5208 24.8095 21.5938 25.7524 21.5938 26.9048C21.5938 28.0571 22.5208 29 23.6667 29C24.8125 29 25.75 28.0571 25.75 26.9048C25.75 25.7524 24.8125 24.8095 23.6667 24.8095ZM13.4271 21.4048L13.4583 21.279L14.3958 19.5714H22.1562C22.9375 19.5714 23.625 19.1419 23.9792 18.4924L28 11.1486L26.1875 10.1429H26.1771L25.0312 12.2381L22.1562 17.4762H14.8437L14.7083 17.1933L12.375 12.2381L11.3854 10.1429L10.4062 8.04762H7V10.1429H9.08333L12.8333 18.0943L11.4271 20.661C11.2604 20.9543 11.1667 21.3 11.1667 21.6667C11.1667 22.819 12.1042 23.7619 13.25 23.7619H25.75V21.6667H13.6875C13.5521 21.6667 13.4271 21.5514 13.4271 21.4048Z" fill="black"/>
</svg>
